<?xml version="1.0" encoding="utf-8"?>
<!-- Generator: Adobe Illustrator 17.1.0, SVG Export Plug-In . SVG Version: 6.00 Build 0)  -->
<!DOCTYPE svg PUBLIC "-//W3C//DTD SVG 1.1//EN" "http://www.w3.org/Graphics/SVG/1.1/DTD/svg11.dtd">
<svg version="1.1" id="Layer_1" xmlns="http://www.w3.org/2000/svg" xmlns:xlink="http://www.w3.org/1999/xlink" x="0px" y="0px"
	 viewBox="0 0 196.1 61.8" enable-background="new 0 0 196.1 61.8" xml:space="preserve">
<g>
	<path fill="#FFFFFF" d="M1,39.7c-0.1-0.1-0.2-0.2-0.4-0.4s-0.3-0.4-0.4-0.6S0,38.3,0,38.1c0-0.2,0.2-0.2,0.5-0.2
		c0.6,0.8,1.4,1.1,2.4,0.9c1-0.2,2.1-0.7,3.3-1.4c1.2-0.7,2.4-1.7,3.6-2.8c1.2-1.1,2.3-2.2,3.3-3.3c1-1.1,1.8-2.1,2.4-3
		c0.6-0.9,1-1.5,1-1.8c0-0.1-0.1-0.2-0.3-0.4c-0.2-0.2-0.5-0.4-0.8-0.5c-0.3-0.2-0.5-0.4-0.8-0.5c-0.2-0.2-0.4-0.3-0.4-0.4
		c0.1-0.3,0.3-0.5,0.8-0.6c0.4-0.1,0.9-0.3,1.5-0.4c0.5-0.1,1.1-0.2,1.6-0.4s0.9-0.3,1.2-0.5c1.4-2.1,2.7-4,3.8-5.6
		c1.1-1.7,2.1-3.3,3-4.9c1-1.6,1.9-3.3,2.9-5c1-1.7,2.1-3.6,3.4-5.8c0.4-0.6,0.6-0.8,0.9-0.6c0.2,0.2,0.4,0.6,0.5,1.4
		C33.9,3,33.9,3.9,34,5c0,1.1,0,2.3,0,3.6c0,1.3-0.1,2.6-0.1,4c-0.1,1.4-0.1,2.6-0.2,3.7c-0.1,1.1-0.1,2.1-0.2,2.9s0,1.4,0,1.6
		c0.1,1.4,0.2,2.6,0.2,3.6c0,1,0.2,1.9,0.4,2.8s0.6,1.7,1.1,2.5c0.5,0.8,1.3,1.7,2.4,2.6c-0.9,0.3-1.6,0.3-2.2-0.1
		c-0.6-0.3-1.1-0.9-1.4-1.5c-0.4-0.7-0.7-1.5-0.9-2.4c-0.2-0.9-0.4-1.8-0.6-2.6c-0.2-0.9-0.4-1.6-0.7-2.2c-0.3-0.6-0.6-1-1-1.2
		c0,0-0.1,0-0.2,0c-0.1,0-0.3,0-0.4,0c-0.1,0-0.3,0-0.4,0c-0.1,0-0.2,0-0.3,0c-0.2,0.1-0.7,0.2-1.4,0.3c-0.7,0.2-1.4,0.3-2.2,0.5
		c-0.8,0.2-1.5,0.4-2.3,0.6c-0.7,0.2-1.2,0.3-1.6,0.4c-0.7,0.2-1.4,0.6-2.1,1.3s-1.5,1.5-2.4,2.5c-0.8,1-1.7,2-2.6,3.1
		c-0.9,1.1-1.8,2.2-2.7,3.3c-0.9,1.1-1.9,2.1-2.8,3c-0.9,0.9-1.9,1.7-2.8,2.2c-0.9,0.6-1.9,0.9-2.9,1C2.8,40.6,1.9,40.3,1,39.7z
		 M22.9,21.8c0.1,0,0.2,0,0.4,0c0.2,0,0.4,0,0.5,0c0.5-0.1,1.1-0.2,1.8-0.3c0.7-0.1,1.5-0.2,2.2-0.4c0.7-0.1,1.4-0.3,2-0.5
		c0.6-0.2,1.1-0.4,1.3-0.7c0.2-1.1,0.3-2.1,0.4-3c0.1-0.9,0.2-1.9,0.3-2.9c0.1-1.1,0.2-2.1,0.3-3.1c0.1-1,0.2-2,0.3-2.9
		c0.1-0.9,0.1-1.6,0.1-2c-0.3-0.1-0.7,0.2-1.2,1s-1.1,2-1.9,3.4c-0.8,1.4-1.7,3.1-2.8,5c-1.1,1.9-2.4,3.9-3.9,5.9V21.8z"/>
	<path fill="#FFFFFF" d="M39.2,31.7C39,31.4,39,31,39.1,30.6c0.1-0.4,0.2-0.8,0.3-1.2c0.2-0.4,0.3-0.8,0.5-1.2
		c0.2-0.4,0.4-0.7,0.5-1.1c0.1-0.3,0.4-0.8,0.7-1.4c0.3-0.7,0.6-1.4,1-2.2c0.3-0.8,0.7-1.5,1-2.2c0.3-0.7,0.5-1.2,0.6-1.5
		c0.2-0.3,0.1-0.6-0.1-0.9c-0.2-0.3-0.4-0.5-0.6-0.8c-0.2-0.2-0.4-0.5-0.5-0.7c-0.1-0.2,0-0.5,0.3-0.9c0.2-0.2,0.4-0.3,0.7-0.4
		c0.3-0.1,0.6-0.1,0.9-0.1c0.3,0,0.6-0.1,0.9-0.2c0.3-0.1,0.5-0.3,0.6-0.6l4.6-8.8c-0.2-0.7-0.3-1.3-0.2-1.8
		c0.1-0.5,0.2-0.9,0.5-1.3c0.3-0.4,0.6-0.7,1-1c0.4-0.3,0.9-0.6,1.4-1c2.8-0.4,5.5-0.8,8.2-1.1C64.3,0,67-0.1,69.9,0.1
		c0.2,0,0.4,0.1,0.6,0.3c0.2,0.2,0.4,0.4,0.6,0.7s0.2,0.5,0.2,0.8c0,0.2-0.2,0.4-0.5,0.5c0,0-0.1,0-0.2-0.1s-0.3-0.1-0.4-0.1
		C69.9,2.1,69.7,2,69.6,2c-0.1-0.1-0.2-0.1-0.2-0.1c-2.2,0-4,0-5.6,0.1c-1.6,0.1-3,0.2-4.2,0.3c-1.2,0.2-2.2,0.4-3,0.8
		c-0.9,0.4-1.6,0.8-2.3,1.4S53,5.9,52.4,6.8c-0.6,0.9-1.2,2-1.8,3.4c-0.3,0.6-0.6,1.1-0.8,1.6c-0.2,0.5-0.4,0.9-0.5,1.4
		c-0.1,0.4-0.1,0.8,0,1.1c1.5,0.3,3,0.2,4.6-0.1c1.6-0.3,3.1-0.7,4.7-1.2c1.6-0.5,3.1-0.9,4.7-1.2c1.6-0.4,3.2-0.5,4.8-0.3v0.9
		c0,0.1-0.5,0.2-1.5,0.3c-1,0.2-2.3,0.4-3.8,0.7c-1.6,0.3-3.3,0.7-5.1,1.1c-1.9,0.4-3.6,1-5.3,1.6c-1.7,0.6-3.2,1.3-4.5,2
		c-1.3,0.8-2.2,1.6-2.6,2.5c-0.9,1.8-1.7,3.6-2.5,5.4c-0.8,1.9-1.5,3.7-2.1,5.6c-0.2,0.2-0.4,0.4-0.7,0.4
		C39.5,32.2,39.3,32.1,39.2,31.7z"/>
	<path fill="#FFFFFF" d="M70.5,31.7c-0.4-0.5-0.6-1.4-0.8-2.6c-0.2-1.2-0.3-2.6-0.3-4.1c0-1.6,0-3.3,0.1-5.1
		c0.1-1.8,0.2-3.7,0.4-5.5c0.2-1.8,0.4-3.6,0.6-5.2c0.3-1.7,0.5-3.1,0.8-4.4c0.3-1.3,0.6-2.2,0.9-2.9c0.3-0.7,0.7-1,1-0.9
		c0.1,0.1,0.1,0.1,0.3,0.2c0.1,0.1,0.2,0.2,0.2,0.2c0,0.3,0,0.9-0.1,1.7c-0.1,0.8-0.2,1.8-0.3,3c-0.1,1.1-0.3,2.4-0.5,3.8
		c-0.2,1.4-0.4,2.8-0.5,4.2c-0.2,1.4-0.4,2.8-0.5,4.1s-0.3,2.5-0.4,3.6c-0.1,1.1-0.1,2-0.1,2.7c0,0.7,0.1,1.1,0.2,1.3l0.4,0.5
		c0.4-0.2,0.8-0.7,1.3-1.5c0.4-0.8,0.9-1.8,1.3-2.9c0.4-1.1,0.9-2.4,1.4-3.8c0.5-1.4,0.9-2.7,1.4-4.1c0.5-1.3,0.9-2.6,1.4-3.8
		C79,9,79.5,8,80,7.3c0.5-0.8,0.9-1.2,1.3-1.4c0.4-0.2,0.8,0,1.2,0.6c0.4,0.6,0.8,1.7,1.1,3.2c0.4,1.5,0.7,3.7,1,6.4
		c0,0.1,0.1,0.6,0.2,1.3c0.1,0.7,0.3,1.5,0.5,2.5c0.2,0.9,0.4,1.9,0.7,2.8c0.3,1,0.6,1.8,0.9,2.4c0.3,0.6,0.6,1,0.9,1.1
		c0.3,0.1,0.6-0.2,0.9-1c0.1-0.2,0.3-0.7,0.5-1.4c0.3-0.7,0.6-1.5,1-2.5c0.4-0.9,0.8-1.9,1.2-3c0.4-1.1,0.8-2.1,1.2-3
		c0.4-0.9,0.7-1.8,1-2.5c0.3-0.7,0.5-1.2,0.6-1.4c0.1-0.3,0.3-0.8,0.5-1.5c0.2-0.7,0.5-1.5,0.9-2.4C96.1,6.8,96.5,5.9,97,5
		c0.5-0.9,0.9-1.8,1.5-2.5c0.5-0.7,1-1.3,1.6-1.7c0.6-0.4,1.1-0.5,1.7-0.3c0.1,0,0.1,0.1,0.2,0.2c0.1,0.1,0.2,0.2,0.2,0.3
		C100.5,3,99.1,5.2,98,7.3c-1.1,2.2-2.1,4.4-2.9,6.6c-0.8,2.3-1.6,4.6-2.4,6.9c-0.7,2.3-1.6,4.7-2.6,7.2c-0.4,1.1-0.8,1.7-1.3,1.8
		c-0.4,0.2-0.9,0-1.3-0.5c-0.4-0.5-0.9-1.2-1.3-2.1c-0.4-0.9-0.8-2-1.2-3.2c-0.4-1.2-0.7-2.4-1.1-3.6c-0.3-1.2-0.6-2.4-0.9-3.5
		c-0.2-1.1-0.4-2-0.6-2.7c-0.1-0.7-0.2-1.2-0.3-1.3c-0.1-0.2-0.1-0.5-0.1-0.8c0-0.3-0.1-0.6-0.1-0.9C82,11,82,10.6,81.9,10.2h-0.4
		c0,0-0.2,0.3-0.5,0.8c-0.3,0.6-0.6,1.2-1,2c-0.4,0.8-0.8,1.6-1.2,2.4c-0.4,0.8-0.7,1.5-1,2.1c-0.1,0.3-0.3,0.9-0.6,1.9
		c-0.3,1-0.6,2.1-1,3.4c-0.4,1.3-0.8,2.6-1.3,3.9c-0.5,1.3-1,2.5-1.5,3.4c-0.5,1-1,1.6-1.5,2C71.3,32.5,70.9,32.4,70.5,31.7z"/>
	<path fill="#FFFFFF" d="M98,31.7c-0.1-0.4-0.1-0.8,0.1-1.1c0.2-0.3,0.5-0.6,0.9-0.8c1.7-0.8,3.3-1.5,4.9-2.1
		c1.6-0.6,3.2-1.2,4.7-1.7c1.6-0.6,3.1-1.2,4.6-1.9c1.5-0.7,3.1-1.6,4.7-2.8c3.5-2.1,6.3-4,8.2-5.8c1.9-1.8,3.1-3.4,3.8-4.8
		c0.6-1.4,0.7-2.7,0.2-3.8c-0.5-1.1-1.3-2-2.4-2.7c-1.1-0.7-2.5-1.1-4.2-1.4c-1.6-0.2-3.3-0.2-5.1,0.1c-1.8,0.3-3.5,0.8-5.2,1.6
		c-1.7,0.8-3.1,1.9-4.3,3.3c0,0.1-0.1,0.1-0.1,0.3c-0.1,0.1-0.1,0.3-0.1,0.4c0,0.1-0.1,0.3-0.1,0.4c0,0.1-0.1,0.2-0.1,0.3
		c-0.8,1.9-1.6,3.6-2.3,5c-0.7,1.4-1.4,2.7-2,4c-0.6,1.3-1.2,2.6-1.8,4.1c-0.6,1.4-1.1,3.2-1.6,5.3c-0.5,0.2-0.8,0.1-1,0
		c-0.2-0.2-0.3-0.5-0.3-0.9c0-0.4,0-0.8,0.1-1.4s0.3-1,0.4-1.5c0.2-0.5,0.3-0.9,0.5-1.3c0.2-0.4,0.3-0.7,0.3-0.9
		c0.2-0.6,0.6-1.4,1-2.4c0.5-1,0.9-2,1.5-3.1c0.5-1.1,1-2.1,1.5-3.1c0.5-1,0.8-1.8,1.1-2.4c-0.2-0.8-0.3-1.5-0.1-2.1
		c0.1-0.6,0.4-1.2,0.8-1.7c0.4-0.5,0.8-1,1.4-1.4c0.5-0.4,1.1-0.8,1.6-1.2c1.5-1.1,3.2-2,5-2.6c1.8-0.6,3.6-1,5.5-1
		c1.9-0.1,3.7,0.2,5.5,0.7c1.8,0.5,3.6,1.4,5.2,2.6c1.3,1.1,2.1,2.3,2.3,3.5c0.2,1.3,0,2.6-0.5,3.9c-0.6,1.3-1.5,2.7-2.8,4.1
		s-2.7,2.7-4.4,4.1c-1.7,1.3-3.5,2.6-5.5,3.8c-2,1.2-3.9,2.4-5.9,3.4c-2,1-3.9,2-5.7,2.8c-1.9,0.8-3.5,1.4-4.9,1.9
		c-1.4,0.5-2.6,0.7-3.5,0.8C98.7,32.3,98.1,32.1,98,31.7z"/>
	<path fill="#FFFFFF" d="M130,38.1c-0.1-0.4-0.1-0.8,0.2-1.3c0.3-0.5,0.6-1,1-1.5c0.4-0.5,0.8-1,1.2-1.5s0.7-0.9,0.9-1.2
		c0.2-0.5,0.4-1,0.5-1.5c0.1-0.5,0.2-1,0.2-1.5c0-0.5,0-1,0.1-1.5c0-0.5,0.1-1,0.1-1.6c0.1-0.8,0.3-1,0.5-0.8
		c0.3,0.2,0.5,0.7,0.7,1.4c0.2,0.7,0.4,1.5,0.4,2.5c0.1,0.9,0,1.8-0.3,2.5c-0.1,0.1-0.2,0.3-0.3,0.7c-0.2,0.4-0.4,0.9-0.6,1.4
		c-0.3,0.5-0.6,1.1-0.9,1.7c-0.3,0.6-0.7,1.1-1.1,1.5s-0.7,0.8-1.1,1c-0.4,0.2-0.7,0.3-1.1,0.1c-0.1,0-0.1-0.1-0.2-0.2
		C130.1,38.2,130,38.2,130,38.1z"/>
</g>
<g>
	<path fill="#FFFFFF" d="M33.3,58.4c-0.2-0.4-0.2-0.8-0.1-1.3s0.3-0.9,0.6-1.4c0.3-0.5,0.6-1,1-1.6s0.7-1.1,1.1-1.7
		c0.3-0.6,0.6-1.2,0.8-1.8c0.2-0.6,0.3-1.2,0.3-1.8c-0.1-0.1-0.2-0.3-0.4-0.6c-0.2-0.3-0.4-0.6-0.7-1c-0.3-0.4-0.5-0.8-0.8-1.3
		s-0.6-0.9-0.9-1.3s-0.5-0.8-0.8-1.2c-0.2-0.4-0.4-0.7-0.5-1s-0.1-0.4-0.1-0.5c0-0.1,0.2-0.1,0.4,0c0.2,0.2,0.4,0.5,0.7,0.9
		s0.6,0.8,0.9,1.3c0.3,0.5,0.6,1,0.9,1.5c0.3,0.5,0.6,1,0.9,1.4s0.5,0.7,0.7,1c0.2,0.2,0.4,0.3,0.5,0.3c0.1-0.3,0.3-0.7,0.6-1.3
		c0.3-0.6,0.6-1.2,0.9-2c0.3-0.7,0.6-1.4,1-2.1c0.3-0.7,0.7-1.3,0.9-1.8c0.3-0.5,0.6-0.8,0.8-1s0.4-0.1,0.5,0.3
		c0.1,0.2,0,0.6-0.2,1.1c-0.2,0.5-0.4,1.1-0.8,1.9c-0.3,0.7-0.7,1.5-1.2,2.4c-0.4,0.9-0.9,1.8-1.4,2.8c-0.5,0.9-1,1.9-1.5,2.9
		c-0.5,1-0.9,1.9-1.4,2.7c-0.4,0.9-0.8,1.7-1.1,2.4c-0.3,0.7-0.5,1.3-0.7,1.8c0,0.1-0.1,0.3-0.2,0.4c-0.1,0.1-0.2,0.2-0.3,0.3
		s-0.2,0.1-0.3,0C33.5,58.8,33.4,58.6,33.3,58.4z"/>
	<path fill="#FFFFFF" d="M42,55.5c-0.6-0.2-0.9-0.6-1.1-1.1c-0.1-0.5-0.1-1,0-1.6c0.2-0.6,0.4-1.2,0.8-1.8c0.4-0.6,0.8-1.2,1.2-1.7
		c0.5-0.5,0.9-0.9,1.4-1.3s0.9-0.5,1.2-0.6c0.9-0.1,1.5-0.1,2,0.2c0.5,0.2,0.8,0.6,1,1c0.2,0.4,0.2,0.9,0.1,1.5
		c-0.1,0.6-0.3,1.1-0.5,1.7c-0.3,0.6-0.6,1.1-1.1,1.7c-0.4,0.5-0.9,1-1.5,1.4c-0.5,0.4-1.1,0.6-1.7,0.7C43.2,55.8,42.6,55.7,42,55.5
		z M41.8,54.3c0.1,0.4,0.3,0.7,0.7,0.7c0.4,0,0.8,0,1.2-0.3s1-0.6,1.5-1s1-0.9,1.4-1.4c0.4-0.5,0.8-1,1.1-1.5c0.3-0.5,0.4-1,0.4-1.3
		s-0.2-0.7-0.6-0.9c-0.4-0.2-1-0.2-1.8-0.1c-0.2,0.2-0.4,0.4-0.7,0.6c-0.3,0.3-0.6,0.5-0.9,0.8c-0.3,0.3-0.6,0.6-1,1
		c-0.3,0.3-0.6,0.7-0.8,1.1c-0.2,0.4-0.4,0.7-0.5,1.1C41.7,53.6,41.7,54,41.8,54.3z"/>
	<path fill="#FFFFFF" d="M58.1,55.5c-0.4-0.2-0.7-0.4-0.9-0.6s-0.4-0.5-0.5-0.8s-0.2-0.6-0.3-1s-0.1-0.7-0.2-1.1
		c-0.1-0.1-0.3,0-0.7,0.2c-0.3,0.2-0.7,0.5-1.1,0.9c-0.4,0.4-0.9,0.7-1.3,1.1s-0.9,0.7-1.4,0.8c-0.4,0.2-0.8,0.2-1.2,0.1
		c-0.4-0.1-0.6-0.5-0.9-1.1c-0.1-0.2,0-0.5,0.1-0.9c0.1-0.4,0.3-0.8,0.5-1.3c0.2-0.5,0.5-1,0.8-1.5s0.6-1,0.9-1.4s0.6-0.8,0.8-1.1
		c0.3-0.3,0.4-0.5,0.6-0.6c0.3,0.2,0.5,0.4,0.4,0.7c0,0.3-0.2,0.7-0.4,1.1c-0.2,0.4-0.5,0.8-0.8,1.3c-0.3,0.5-0.7,0.9-0.9,1.3
		c-0.3,0.4-0.5,0.9-0.7,1.3c-0.2,0.4-0.2,0.8-0.1,1.1c0.3,0.1,0.7,0.1,1.1-0.2c0.4-0.3,0.9-0.6,1.4-1.1c0.5-0.5,1-1,1.6-1.6
		c0.5-0.6,1-1.1,1.5-1.7c0.5-0.5,0.9-1,1.2-1.4c0.4-0.4,0.6-0.7,0.8-0.8c0.3,0.1,0.4,0.4,0.4,0.7c0,0.3-0.1,0.7-0.2,1.1
		c-0.2,0.4-0.4,0.8-0.6,1.3c-0.2,0.5-0.4,0.9-0.6,1.4s-0.3,0.9-0.3,1.3c0,0.4,0.1,0.8,0.3,1.1l0.7,0.8h2.1c0.1,0,0.1,0,0.1,0.1
		c-0.1,0.1-0.1,0.2-0.2,0.3c-0.1,0.1-0.2,0.2-0.3,0.3c-0.1,0.1-0.2,0.1-0.2,0.1c-0.4,0.1-0.6,0.1-0.9,0S58.4,55.6,58.1,55.5z"/>
	<path fill="#FFFFFF" d="M63,55.5c0,0,0-0.1,0-0.2s0-0.2,0-0.2c0-0.2,0.1-0.4,0.2-0.8s0.2-0.8,0.4-1.2s0.2-0.8,0.4-1.2
		c0.1-0.4,0.2-0.6,0.2-0.8c0.1-0.2,0.1-0.4,0.2-0.7c0.1-0.3,0.1-0.5,0-0.7c-0.2,0-0.5,0-0.8,0.1c-0.3,0.1-0.6,0.1-0.9,0.2
		c-0.3,0-0.6,0-0.8,0c-0.3,0-0.4-0.2-0.5-0.5c0.2-0.3,0.4-0.6,0.7-0.7c0.3-0.1,0.7-0.2,1.1-0.2c0.4,0,0.8-0.1,1.1-0.2
		c0.4-0.1,0.6-0.3,0.8-0.6c0.1-0.4,0.3-0.8,0.4-1.3c0.2-0.5,0.4-1.1,0.5-1.6c0.2-0.6,0.4-1.1,0.6-1.7c0.2-0.5,0.5-1,0.7-1.5
		c0.2-0.1,0.3-0.1,0.4,0c0.1,0.1,0.2,0.2,0.2,0.4c0,0.2,0.1,0.3,0.1,0.5s0,0.3,0,0.3c-0.1,0.4-0.2,0.7-0.4,1.1s-0.4,0.8-0.6,1.2
		s-0.3,0.8-0.4,1.2s-0.1,0.8,0,1.2h4.4c0,0,0,0,0.1,0.1c0.1,0.1,0.1,0.2,0.1,0.2c0.1,0.2,0,0.3-0.2,0.4c-0.2,0.1-0.5,0.1-0.9,0.1
		c-0.4,0-0.8,0-1.3,0c-0.5,0-0.9,0-1.4,0.1c-0.4,0.1-0.8,0.2-1.2,0.3c-0.3,0.1-0.6,0.4-0.7,0.6c-0.4,0.9-0.7,1.8-1,2.8
		s-0.6,1.9-0.9,2.8c0,0-0.1,0.1-0.2,0.2c-0.1,0.1-0.2,0.2-0.3,0.2c-0.1,0.1-0.2,0.1-0.3,0.1S63.1,55.7,63,55.5z"/>
	<path fill="#FFFFFF" d="M70.2,55.3c0,0,0-0.1,0-0.1s0-0.1,0-0.1c0.1-0.1,0.1-0.3,0.3-0.6c0.1-0.3,0.3-0.5,0.4-0.8
		c0.1-0.3,0.3-0.6,0.4-0.8c0.1-0.3,0.2-0.4,0.3-0.6c0,0,0.1-0.2,0.2-0.3c0.1-0.2,0.3-0.4,0.4-0.7c0.2-0.3,0.4-0.6,0.6-0.9
		c0.2-0.3,0.4-0.7,0.6-1s0.4-0.6,0.6-0.9c0.2-0.3,0.3-0.5,0.4-0.7c0.3-0.5,0.6-1,1-1.6c0.4-0.6,0.7-1.2,1.1-1.9s0.8-1.2,1.1-1.8
		c0.4-0.6,0.7-1.1,1-1.5s0.6-0.6,0.8-0.8c0.2-0.1,0.4,0,0.5,0.2v0.7c-0.1,0.2-0.2,0.3-0.4,0.6c-0.2,0.2-0.3,0.5-0.5,0.8
		c-0.2,0.3-0.3,0.5-0.5,0.8c-0.2,0.2-0.3,0.4-0.4,0.6c-0.1,0.2-0.3,0.5-0.6,0.9C77.3,45,77,45.5,76.6,46c-0.3,0.5-0.7,1.1-1.1,1.7
		c-0.4,0.6-0.7,1.1-1,1.6c-0.3,0.5-0.5,0.9-0.7,1.3s-0.2,0.6-0.2,0.7c0.3-0.1,0.7-0.3,1.1-0.5c0.4-0.3,0.8-0.5,1.1-0.8
		c0.4-0.3,0.8-0.6,1.2-0.8c0.4-0.3,0.7-0.5,1.1-0.6c0.3,0,0.6,0.2,0.9,0.4c0.2,0.2,0.4,0.5,0.5,0.8c0,0.1,0,0.4,0,0.7
		c0,0.3,0,0.7,0,1.1s0,0.7,0,1.1c0,0.3,0,0.6,0,0.7c0,0.2,0.1,0.3,0.2,0.6c0.1,0.2,0.3,0.5,0.4,0.7c0.1,0.2,0.3,0.4,0.4,0.6
		c0.1,0.2,0.2,0.3,0.2,0.3c-0.3,0.1-0.5,0.1-0.8,0c-0.2-0.1-0.5-0.2-0.6-0.4s-0.3-0.4-0.5-0.7s-0.2-0.5-0.2-0.8c0-0.1,0-0.4-0.1-0.7
		c0-0.3-0.1-0.7-0.1-1.1c0-0.4,0-0.7-0.1-1.1s0-0.6,0-0.7l-0.5-0.2c-0.1,0-0.2,0-0.4,0.1s-0.4,0.3-0.7,0.5s-0.5,0.4-0.8,0.7
		c-0.3,0.2-0.6,0.5-0.8,0.7c-0.3,0.2-0.5,0.4-0.6,0.6c-0.2,0.2-0.3,0.3-0.3,0.3c-0.1,0.1-0.3,0.3-0.6,0.6c-0.3,0.3-0.6,0.6-0.9,0.9
		s-0.6,0.6-0.9,0.9c-0.3,0.3-0.5,0.5-0.6,0.6c-0.2,0-0.4,0.1-0.5,0.1S70.3,55.5,70.2,55.3z"/>
	<path fill="#FFFFFF" d="M93,55.3c-0.1-0.2-0.1-0.5,0-0.9c0.1-0.4,0.2-0.8,0.4-1.2s0.4-0.8,0.6-1.2s0.4-0.7,0.5-0.9
		c0-0.1,0.1-0.2,0.1-0.2c0-0.1,0-0.1,0.1-0.2c0-0.1,0-0.1,0.1-0.2c0-0.1,0.1-0.2,0.1-0.4c0.1-0.2,0.2-0.5,0.4-0.8
		c0.2-0.4,0.4-0.8,0.6-1.3c0.2-0.5,0.5-1,0.7-1.5c0.3-0.5,0.5-1,0.7-1.5c0.2-0.5,0.4-0.9,0.6-1.3s0.3-0.7,0.4-0.8v-0.5
		c-0.2,0-0.5,0-0.7,0c-0.2,0.1-0.5,0.2-0.7,0.3c-0.2,0.1-0.4,0.3-0.6,0.4c-0.2,0.2-0.4,0.3-0.5,0.4c-0.2,0-0.3-0.1-0.3-0.3
		c0-0.1,0-0.3,0-0.4c0.1-0.2,0.1-0.3,0.2-0.4s0.2-0.2,0.3-0.3c1.4-0.9,3-1.5,4.6-1.8c1.6-0.3,3.3-0.3,5-0.1c1,0.5,1.7,1,2.1,1.6
		c0.4,0.6,0.5,1.2,0.4,1.7c-0.1,0.6-0.4,1.2-0.9,1.8c-0.5,0.6-1.1,1.1-1.9,1.7c-0.7,0.5-1.5,1-2.4,1.5c-0.9,0.5-1.8,0.8-2.6,1.2
		c-0.9,0.3-1.7,0.6-2.5,0.8s-1.4,0.3-2,0.3c-0.3,0.4-0.5,0.8-0.6,1c-0.2,0.3-0.3,0.5-0.4,0.7c-0.1,0.2-0.2,0.4-0.2,0.6
		c-0.1,0.2-0.1,0.4-0.2,0.6c-0.1,0.2-0.1,0.5-0.2,0.8c-0.1,0.3-0.2,0.7-0.4,1.1l-0.2,0.2c-0.1,0-0.1-0.1-0.3-0.2
		C93.1,55.4,93,55.3,93,55.3z M96.5,49.6c0.6,0.1,1.2,0.1,1.8-0.1c0.6-0.1,1.3-0.3,1.9-0.6c0.6-0.2,1.3-0.5,1.8-0.8
		c0.6-0.3,1.1-0.6,1.6-0.9c1.2-0.6,2-1.3,2.6-1.9s0.9-1.2,1-1.7c0.1-0.5,0.1-1-0.2-1.4c-0.2-0.4-0.6-0.7-1.1-1s-1-0.4-1.6-0.5
		c-0.6-0.1-1.3,0-1.9,0.1c-0.6,0.2-1.2,0.5-1.8,0.9c-0.6,0.4-1.1,1-1.4,1.7c-0.1,0.3-0.3,0.6-0.5,1c-0.2,0.4-0.4,0.8-0.6,1.2
		c-0.2,0.4-0.4,0.8-0.6,1.2S97.1,47.7,97,48c-0.2,0.3-0.3,0.6-0.4,0.8c-0.1,0.2-0.1,0.3-0.1,0.3V49.6z"/>
	<path fill="#FFFFFF" d="M105.6,55.5c0,0,0-0.2,0-0.5c0-0.3,0.1-0.7,0.2-1.2c0.1-0.5,0.2-1,0.3-1.5c0.1-0.6,0.2-1.1,0.4-1.6
		s0.3-1,0.4-1.4c0.1-0.4,0.3-0.7,0.4-0.8c0.1-0.1,0.2-0.1,0.3,0c0.1,0.1,0.2,0.2,0.3,0.3c0.1,0.1,0.2,0.2,0.3,0.3
		c0.1,0.1,0.2,0.1,0.3,0c0.4-0.5,0.8-1,1.3-1.5c0.5-0.5,1-0.9,1.5-1.3c0.1,0,0.2-0.1,0.5-0.2c0.2-0.1,0.5-0.2,0.8-0.3
		c0.3-0.1,0.6-0.2,1-0.2c0.3-0.1,0.6-0.1,0.9-0.1c0.2,0,0.4,0.1,0.5,0.2c0.1,0.1,0,0.3-0.1,0.6c-0.8,0-1.6,0.3-2.3,0.7
		c-0.7,0.5-1.4,1-2,1.7c-0.6,0.7-1.2,1.4-1.6,2.2c-0.5,0.8-0.9,1.5-1.3,2.2c-0.4,0.7-0.7,1.3-0.9,1.7c-0.2,0.5-0.4,0.7-0.5,0.7
		c0,0-0.1,0-0.2-0.1C105.8,55.6,105.7,55.5,105.6,55.5z"/>
	<path fill="#FFFFFF" d="M116.7,55.5c-0.6-0.2-0.9-0.6-1.1-1.1s-0.1-1,0-1.6c0.2-0.6,0.4-1.2,0.8-1.8c0.4-0.6,0.8-1.2,1.2-1.7
		c0.5-0.5,0.9-0.9,1.4-1.3c0.5-0.4,0.9-0.5,1.2-0.6c0.9-0.1,1.5-0.1,2,0.2c0.5,0.2,0.8,0.6,1,1s0.2,0.9,0.1,1.5s-0.3,1.1-0.5,1.7
		c-0.3,0.6-0.6,1.1-1.1,1.7c-0.4,0.5-0.9,1-1.5,1.4c-0.5,0.4-1.1,0.6-1.7,0.7C117.9,55.8,117.3,55.7,116.7,55.5z M116.5,54.3
		c0.1,0.4,0.3,0.7,0.7,0.7c0.4,0,0.8,0,1.2-0.3c0.5-0.2,1-0.6,1.5-1c0.5-0.4,1-0.9,1.4-1.4c0.4-0.5,0.8-1,1.1-1.5
		c0.3-0.5,0.4-1,0.4-1.3s-0.2-0.7-0.6-0.9s-1-0.2-1.8-0.1c-0.2,0.2-0.4,0.4-0.7,0.6c-0.3,0.3-0.6,0.5-0.9,0.8c-0.3,0.3-0.6,0.6-1,1
		c-0.3,0.3-0.6,0.7-0.8,1.1c-0.2,0.4-0.4,0.7-0.5,1.1C116.4,53.6,116.4,54,116.5,54.3z"/>
	<path fill="#FFFFFF" d="M121.1,61.6c-0.4-0.2-0.8-0.4-1-0.7c-0.3-0.3-0.5-0.6-0.6-1c-0.1-0.4-0.2-0.7-0.3-1.1c0-0.4,0-0.7,0-0.9
		c0-0.3,0.1-0.5,0.2-0.6c0.1-0.1,0.2-0.2,0.4-0.1c0,1.2,0.1,2.1,0.4,2.7c0.3,0.6,0.7,1,1.2,1.2c0.5,0.2,1,0.1,1.6-0.1
		c0.6-0.2,1.2-0.6,1.8-1.1c0.6-0.5,1.2-1.1,1.8-1.8c0.6-0.7,1-1.4,1.4-2.1c0.4-0.7,0.7-1.5,0.8-2.2c0.2-0.7,0.2-1.4,0-2
		c-1.2,0.9-2.2,1.5-2.9,1.7s-1.2,0.2-1.4,0c-0.3-0.2-0.4-0.6-0.3-1.1c0.1-0.5,0.3-1.2,0.6-1.8c0.3-0.7,0.7-1.3,1.2-2
		c0.5-0.7,1-1.2,1.5-1.7c0.5-0.5,1-0.7,1.5-0.9c0.5-0.1,0.9,0,1.2,0.4c0.3,0.4,0.5,1,0.6,1.7s0.1,1.5-0.1,2.4
		c-0.1,0.9-0.3,1.8-0.6,2.8c-0.3,1-0.7,1.9-1.1,2.8c-0.5,0.9-1,1.8-1.6,2.5s-1.2,1.4-1.9,2c-0.7,0.5-1.4,0.9-2.1,1.1
		S121.9,61.8,121.1,61.6z M125.3,51.3c0,0,0,0.1,0,0.2s0,0.2,0,0.4c0,0.1,0,0.2,0,0.3c0,0.1,0,0.2,0,0.2c0.4,0.1,0.9,0,1.4-0.3
		c0.5-0.3,0.9-0.7,1.3-1.2c0.4-0.5,0.7-1,1-1.6s0.4-1,0.5-1.4c0.1-0.4,0-0.6-0.2-0.6c-0.2,0-0.6,0.2-1.1,0.7
		c-0.2,0.2-0.4,0.4-0.7,0.6c-0.3,0.3-0.6,0.5-0.8,0.8c-0.3,0.3-0.5,0.6-0.8,0.9S125.4,51.1,125.3,51.3z"/>
	<path fill="#FFFFFF" d="M132,55.5c0,0,0-0.2,0-0.5c0-0.3,0.1-0.7,0.2-1.2c0.1-0.5,0.2-1,0.3-1.5c0.1-0.6,0.2-1.1,0.4-1.6
		c0.1-0.5,0.3-1,0.4-1.4c0.1-0.4,0.3-0.7,0.4-0.8c0.1-0.1,0.2-0.1,0.3,0c0.1,0.1,0.2,0.2,0.3,0.3c0.1,0.1,0.2,0.2,0.3,0.3
		c0.1,0.1,0.2,0.1,0.3,0c0.4-0.5,0.8-1,1.3-1.5c0.5-0.5,1-0.9,1.5-1.3c0.1,0,0.2-0.1,0.5-0.2c0.2-0.1,0.5-0.2,0.8-0.3
		c0.3-0.1,0.6-0.2,1-0.2c0.3-0.1,0.6-0.1,0.9-0.1c0.2,0,0.4,0.1,0.5,0.2c0.1,0.1,0,0.3-0.1,0.6c-0.8,0-1.6,0.3-2.3,0.7
		c-0.7,0.5-1.4,1-2,1.7c-0.6,0.7-1.2,1.4-1.6,2.2c-0.5,0.8-0.9,1.5-1.3,2.2c-0.4,0.7-0.7,1.3-0.9,1.7c-0.2,0.5-0.4,0.7-0.5,0.7
		c0,0-0.1,0-0.2-0.1C132.1,55.6,132,55.5,132,55.5z"/>
	<path fill="#FFFFFF" d="M142.6,55.3c-0.3-0.3-0.5-0.7-0.5-1.2c0-0.5,0-1.1,0.2-1.8c0.2-0.7,0.5-1.4,0.8-2.1
		c0.4-0.7,0.8-1.4,1.3-2.1c0.5-0.7,1-1.3,1.6-1.8c0.6-0.5,1.1-0.9,1.7-1.2c0.6-0.3,1.1-0.3,1.6-0.3s1,0.4,1.5,0.9
		c0.3,0.3,0.4,0.7,0.5,1c0.1,0.4,0,0.7,0,1.1c-0.1,0.4-0.2,0.7-0.3,1.1s-0.3,0.8-0.4,1.1c-0.1,0.4-0.3,0.8-0.4,1.2
		c-0.1,0.4-0.1,0.8-0.1,1.2c0.1,0.5,0.3,0.8,0.7,0.9c0.4,0.1,0.9,0.1,1.4-0.1s1.1-0.4,1.8-0.7c0.6-0.3,1.2-0.7,1.7-1
		c0.5-0.3,1.1-0.7,1.8-1.2c0.4-0.1,0.6-0.1,0.6,0.1c0,0.1,0,0.3-0.2,0.6s-0.5,0.5-0.9,0.9c-0.4,0.3-0.9,0.6-1.4,0.9
		c-0.5,0.3-1.1,0.6-1.6,0.8c-0.6,0.2-1.1,0.4-1.7,0.5c-0.5,0.1-1.1,0.1-1.6,0c-0.5-0.1-0.9-0.3-1.2-0.7c-0.2-0.2-0.3-0.3-0.3-0.5
		s-0.2-0.3-0.4-0.4c-0.2,0.2-0.5,0.4-0.7,0.8s-0.6,0.6-0.9,0.9c-0.3,0.3-0.7,0.6-1.1,0.9c-0.4,0.3-0.8,0.5-1.2,0.6
		c-0.4,0.1-0.8,0.2-1.2,0.1C143.3,55.8,142.9,55.6,142.6,55.3z M142.8,54.6c0.1,0.4,0.4,0.6,0.8,0.6s0.9-0.2,1.5-0.6
		c0.6-0.4,1.1-0.9,1.8-1.6c0.6-0.7,1.1-1.4,1.6-2.2c0.5-0.8,0.8-1.7,1.1-2.6c0.3-0.9,0.3-1.8,0.2-2.7c-0.3-0.3-0.7-0.3-1.2,0
		c-0.5,0.2-1,0.6-1.6,1.2c-0.6,0.5-1.1,1.2-1.6,1.9s-1,1.5-1.4,2.3c-0.4,0.8-0.7,1.5-0.9,2.2C142.7,53.7,142.7,54.2,142.8,54.6z"/>
	<path fill="#FFFFFF" d="M168.4,54.7c0-0.2,0-0.5,0-0.7c0-0.2,0.1-0.4,0.2-0.7c0.1-0.2,0.2-0.4,0.3-0.6c0.1-0.1,0.2-0.4,0.3-0.8
		c0.2-0.4,0.4-0.7,0.6-1.1s0.4-0.8,0.6-1.1s0.3-0.6,0.4-0.7v-0.5c-0.1-0.1-0.4,0-0.8,0.3c-0.4,0.3-0.9,0.6-1.5,1.1s-1.2,0.9-1.8,1.5
		c-0.6,0.5-1.2,1.1-1.8,1.6c-0.6,0.5-1,0.9-1.5,1.3s-0.7,0.6-0.8,0.8c-0.3,0.1-0.5,0-0.6-0.2c-0.1-0.2-0.1-0.5-0.1-0.9
		c0-0.4,0.1-0.9,0.2-1.4c0.1-0.5,0.3-1,0.4-1.4c0.1-0.4,0.2-0.8,0.3-1.1c0.1-0.3,0.1-0.5,0.1-0.5c-0.3-0.1-0.6-0.1-0.9,0.1
		c-0.3,0.2-0.6,0.4-0.9,0.7c-0.3,0.3-0.6,0.7-0.9,1.1c-0.3,0.4-0.6,0.9-0.9,1.3c-0.3,0.4-0.6,0.8-0.9,1.2c-0.3,0.4-0.6,0.7-0.8,1
		c-0.3,0.2-0.5,0.4-0.7,0.4s-0.4-0.1-0.6-0.3c0,0,0,0,0-0.1c0-0.1,0-0.1,0-0.1c0.1-0.1,0.2-0.4,0.3-0.6c0.1-0.3,0.3-0.6,0.5-1
		s0.4-0.8,0.6-1.2s0.4-0.8,0.6-1.2s0.3-0.7,0.5-1c0.1-0.3,0.3-0.5,0.3-0.6c0.1-0.1,0.2-0.3,0.3-0.5s0.2-0.4,0.4-0.6
		c0.1-0.2,0.3-0.4,0.5-0.7h0.5c0.1,0.3,0.1,0.6,0,0.9c-0.1,0.3-0.3,0.5-0.4,0.8c-0.2,0.3-0.3,0.5-0.4,0.8c-0.1,0.3-0.1,0.5,0,0.8
		c1.2-1,2.1-1.8,2.7-2.3c0.6-0.5,1.1-0.8,1.4-0.8c0.3-0.1,0.4,0,0.4,0.3c0,0.3-0.1,0.6-0.2,1.1c-0.1,0.5-0.2,1-0.3,1.6
		c-0.1,0.6-0.1,1.2,0,1.7h0.2c0.1-0.1,0.2-0.2,0.4-0.3s0.4-0.3,0.6-0.5c0.2-0.2,0.4-0.3,0.6-0.5s0.3-0.3,0.4-0.3
		c0.2-0.1,0.4-0.3,0.7-0.5c0.3-0.2,0.6-0.4,0.9-0.7c0.3-0.2,0.6-0.4,0.8-0.6c0.2-0.2,0.4-0.3,0.5-0.3c0.1,0,0.2-0.1,0.4-0.3
		s0.4-0.3,0.6-0.4s0.4-0.3,0.6-0.4c0.2-0.1,0.4-0.2,0.5-0.3c0.2-0.1,0.4-0.2,0.6-0.2c0.2,0,0.3,0.1,0.4,0.2c0.1,0.1,0.2,0.3,0.2,0.5
		c0,0.2,0,0.4-0.1,0.7c-0.3,0.6-0.7,1.2-1,1.8c-0.3,0.6-0.6,1.2-0.9,1.8c-0.3,0.6-0.5,1.2-0.7,1.8s-0.3,1.3-0.3,2
		c-0.1,0-0.1,0-0.2,0c-0.1,0-0.1-0.1-0.2-0.2c-0.1-0.1-0.2-0.2-0.2-0.3C168.5,55.1,168.4,54.9,168.4,54.7z"/>
</g>
<g>
	<path fill="#FFFFFF" d="M151.4,26c0.8-2.6,1.6-4.7,2.2-6.3s1.2-2.6,1.7-3.2c0.4-0.6,0.8-0.8,0.9-0.6c0.2,0.2,0.1,0.8,0,1.7
		c-0.2,0.9-0.6,2.1-1.2,3.6c-0.6,1.5-1.5,3.2-2.6,5.2c-0.2,0.1-0.3,0.1-0.6,0C151.6,26.3,151.5,26.2,151.4,26z M156.7,11.6
		c0-0.1-0.1-0.3-0.1-0.5c0-0.3,0-0.4,0.1-0.5c0.5-0.2,0.8-0.2,1-0.1c0.2,0.1,0.4,0.3,0.4,0.5c0.1,0.2,0.1,0.5,0,0.7
		c-0.1,0.3-0.2,0.5-0.3,0.6c-0.2,0.1-0.3,0.1-0.6,0.1S156.8,12.1,156.7,11.6z"/>
	<path fill="#FFFFFF" d="M170.4,26c-0.1-0.7,0-1.3,0.2-2c0.2-0.6,0.4-1.3,0.7-1.9c0.3-0.6,0.6-1.3,0.9-1.9c0.3-0.6,0.6-1.2,0.9-1.9
		c0.2-0.6,0.4-1.2,0.5-1.8c0.1-0.6,0.1-1.2-0.1-1.8c-0.5-0.2-1.1-0.1-1.7,0.1c-0.6,0.3-1.3,0.7-2.1,1.2c-0.7,0.5-1.5,1.1-2.2,1.9
		c-0.8,0.7-1.5,1.4-2.2,2.2c-0.7,0.7-1.4,1.4-2.1,2.1c-0.7,0.7-1.3,1.2-1.8,1.6c-0.5,0.4-1,0.7-1.3,0.8c-0.4,0.1-0.6,0-0.7-0.4
		c0,0,0.1-0.3,0.3-0.8c0.2-0.5,0.6-1.1,0.9-1.8c0.4-0.7,0.8-1.5,1.2-2.4c0.4-0.9,0.9-1.7,1.3-2.4c0.4-0.7,0.7-1.4,1-1.9
		c0.3-0.5,0.5-0.8,0.6-0.8c0.4,0.3,0.6,0.6,0.6,0.9c0,0.3,0,0.7-0.2,1c-0.1,0.3-0.3,0.7-0.4,1.1s-0.2,0.7-0.1,1.1
		c0.3-0.2,0.8-0.5,1.3-0.9c0.6-0.4,1.2-0.8,1.9-1.2c0.7-0.4,1.4-0.8,2.1-1.2s1.4-0.7,2.1-0.9c0.6-0.2,1.2-0.4,1.7-0.4
		c0.5,0,0.9,0.1,1.1,0.4c0.2,0.3,0.3,0.8,0.2,1.6c-0.1,0.7-0.4,1.7-0.9,3c-0.1,0.1-0.2,0.5-0.4,1c-0.2,0.5-0.5,1.1-0.7,1.7
		c-0.3,0.6-0.5,1.2-0.7,1.7c-0.2,0.5-0.4,0.9-0.4,1c0,0.1,0,0.2-0.1,0.4s-0.1,0.4-0.1,0.7c0,0.2-0.1,0.5-0.2,0.7
		c-0.1,0.2-0.2,0.4-0.3,0.5s-0.3,0.1-0.4,0C170.5,26.2,170.4,26.1,170.4,26z"/>
	<path fill="#FFFFFF" d="M179,26c-1-0.3-1.7-0.9-2-1.6c-0.3-0.7-0.4-1.5-0.3-2.4c0.1-0.9,0.5-1.9,1-2.9s1.2-2,1.9-2.9
		c0.7-0.9,1.5-1.7,2.3-2.5c0.8-0.7,1.6-1.3,2.3-1.7c0.7-0.4,1.4-0.5,1.9-0.4c0.5,0.1,0.8,0.5,1,1.2c0.1,0.3,0,0.7-0.1,1
		c-0.1,0.4-0.3,0.7-0.5,1.1c-0.2,0.3-0.5,0.7-0.8,1c-0.3,0.3-0.6,0.5-0.8,0.6c-0.3,0.1-0.5,0.2-0.7,0.1c-0.2,0-0.3-0.2-0.4-0.5
		c0.2-0.4,0.5-0.8,0.8-1.2c0.3-0.4,0.6-0.8,0.9-1.2c-0.1-0.2-0.3-0.3-0.7-0.1c-0.3,0.1-0.7,0.4-1.2,0.7c-0.5,0.4-1,0.8-1.5,1.4
		c-0.5,0.5-1,1.1-1.5,1.8c-0.5,0.6-0.9,1.3-1.3,2c-0.4,0.7-0.7,1.4-0.9,2c-0.2,0.6-0.2,1.2-0.1,1.8c0.1,0.5,0.4,1,0.9,1.3
		c0.7,0.1,1.4,0,2.3-0.2c0.9-0.2,1.7-0.4,2.6-0.7c0.9-0.3,1.8-0.6,2.7-1c0.9-0.3,1.7-0.7,2.4-1c0.7-0.3,1.3-0.5,1.9-0.7
		c0.5-0.2,0.8-0.2,1-0.1c0.4,0.2,0.4,0.5,0.1,0.9c-0.3,0.4-0.9,0.8-1.7,1.2c-0.8,0.4-1.7,0.9-2.8,1.3c-1.1,0.4-2.1,0.8-3.2,1.1
		c-1.1,0.3-2.1,0.5-3.1,0.7S179.5,26.2,179,26z"/>
	<path fill="#FFFFFF" d="M193.7,26c-0.3-0.4-0.4-0.8-0.2-1.3s0.4-0.8,0.7-1s0.7-0.3,1-0.3c0.4,0,0.7,0.3,0.9,0.8
		c0.1,0.3,0.1,0.6,0,0.9c-0.1,0.3-0.4,0.6-0.6,0.8c-0.3,0.2-0.6,0.3-0.9,0.4C194.2,26.5,193.9,26.3,193.7,26z"/>
</g>
</svg>
