<svg xmlns="http://www.w3.org/2000/svg" viewBox="0 0 196.1 61.8" enable-background="new 0 0 196.1 61.8"><g fill="#fff"><path d="M1 39.7l-.4-.4s-.3-.4-.4-.6-.2-.4-.2-.6c0-.2.2-.2.5-.2.6.8 1.4 1.1 2.4.9 1-.2 2.1-.7 3.3-1.4 1.2-.7 2.4-1.7 3.6-2.8 1.2-1.1 2.3-2.2 3.3-3.3 1-1.1 1.8-2.1 2.4-3 .6-.9 1-1.5 1-1.8 0-.1-.1-.2-.3-.4-.2-.2-.5-.4-.8-.5-.3-.2-.5-.4-.8-.5-.2-.2-.4-.3-.4-.4.1-.3.3-.5.8-.6.4-.1.9-.3 1.5-.4.5-.1 1.1-.2 1.6-.4s.9-.3 1.2-.5c1.4-2.1 2.7-4 3.8-5.6 1.1-1.7 2.1-3.3 3-4.9 1-1.6 1.9-3.3 2.9-5 1-1.7 2.1-3.6 3.4-5.8.4-.6.6-.8.9-.6.2.2.4.6.5 1.4.1.7.1 1.6.2 2.7v3.6c0 1.3-.1 2.6-.1 4-.1 1.4-.1 2.6-.2 3.7s-.1 2.1-.2 2.9v1.6c.1 1.4.2 2.6.2 3.6s.2 1.9.4 2.8.6 1.7 1.1 2.5c.5.8 1.3 1.7 2.4 2.6-.9.3-1.6.3-2.2-.1-.6-.3-1.1-.9-1.4-1.5-.4-.7-.7-1.5-.9-2.4-.2-.9-.4-1.8-.6-2.6-.2-.9-.4-1.6-.7-2.2-.3-.6-.6-1-1-1.2h-1.3c-.2.1-.7.2-1.4.3-.7.2-1.4.3-2.2.5l-2.3.6c-.7.2-1.2.3-1.6.4-.7.2-1.4.6-2.1 1.3s-1.5 1.5-2.4 2.5c-.8 1-1.7 2-2.6 3.1l-2.7 3.3c-.9 1.1-1.9 2.1-2.8 3-.9.9-1.9 1.7-2.8 2.2-.9.6-1.9.9-2.9 1-.9.1-1.8-.2-2.7-.8zm21.9-17.9h.9c.5-.1 1.1-.2 1.8-.3.7-.1 1.5-.2 2.2-.4.7-.1 1.4-.3 2-.5.6-.2 1.1-.4 1.3-.7.2-1.1.3-2.1.4-3 .1-.9.2-1.9.3-2.9.1-1.1.2-2.1.3-3.1.1-1 .2-2 .3-2.9.1-.9.1-1.6.1-2-.3-.1-.7.2-1.2 1s-1.1 2-1.9 3.4c-.8 1.4-1.7 3.1-2.8 5-1.1 1.9-2.4 3.9-3.9 5.9v.5zM39.2 31.7c-.2-.3-.2-.7-.1-1.1l.3-1.2.5-1.2c.2-.4.4-.7.5-1.1.1-.3.4-.8.7-1.4.3-.7.6-1.4 1-2.2.3-.8.7-1.5 1-2.2.3-.7.5-1.2.6-1.5.2-.3.1-.6-.1-.9l-.6-.8c-.2-.2-.4-.5-.5-.7-.1-.2 0-.5.3-.9.2-.2.4-.3.7-.4.3-.1.6-.1.9-.1.3 0 .6-.1.9-.2.3-.1.5-.3.6-.6l4.6-8.8c-.2-.7-.3-1.3-.2-1.8.1-.5.2-.9.5-1.3s.6-.7 1-1c.4-.3.9-.6 1.4-1 2.8-.4 5.5-.8 8.2-1.1 2.9-.2 5.6-.3 8.5-.1.2 0 .4.1.6.3.2.2.4.4.6.7s.2.5.2.8c0 .2-.2.4-.5.5 0 0-.1 0-.2-.1s-.3-.1-.4-.1c-.3-.1-.5-.2-.6-.2-.1-.1-.2-.1-.2-.1-2.2 0-4 0-5.6.1-1.6.1-3 .2-4.2.3-1.2.2-2.2.4-3 .8-.9.4-1.6.8-2.3 1.4s-1.3 1.4-1.9 2.3c-.6.9-1.2 2-1.8 3.4-.3.6-.6 1.1-.8 1.6-.2.5-.4.9-.5 1.4-.1.4-.1.8 0 1.1 1.5.3 3 .2 4.6-.1 1.6-.3 3.1-.7 4.7-1.2s3.1-.9 4.7-1.2c1.6-.4 3.2-.5 4.8-.3v.9c0 .1-.5.2-1.5.3-1 .2-2.3.4-3.8.7-1.6.3-3.3.7-5.1 1.1-1.9.4-3.6 1-5.3 1.6-1.7.6-3.2 1.3-4.5 2-1.3.8-2.2 1.6-2.6 2.5-.9 1.8-1.7 3.6-2.5 5.4-.8 1.9-1.5 3.7-2.1 5.6-.2.2-.4.4-.7.4-.5.2-.7.1-.8-.3zM70.5 31.7c-.4-.5-.6-1.4-.8-2.6-.2-1.2-.3-2.6-.3-4.1 0-1.6 0-3.3.1-5.1.1-1.8.2-3.7.4-5.5.2-1.8.4-3.6.6-5.2.3-1.7.5-3.1.8-4.4.3-1.3.6-2.2.9-2.9.3-.7.7-1 1-.9.1.1.1.1.3.2l.2.2c0 .3 0 .9-.1 1.7-.1.8-.2 1.8-.3 3-.1 1.1-.3 2.4-.5 3.8s-.4 2.8-.5 4.2c-.2 1.4-.4 2.8-.5 4.1s-.3 2.5-.4 3.6c-.1 1.1-.1 2-.1 2.7 0 .7.1 1.1.2 1.3l.4.5c.4-.2.8-.7 1.3-1.5.4-.8.9-1.8 1.3-2.9.4-1.1.9-2.4 1.4-3.8l1.4-4.1c.5-1.3.9-2.6 1.4-3.8.3-1.2.8-2.2 1.3-2.9.5-.8.9-1.2 1.3-1.4.4-.2.8 0 1.2.6.4.6.8 1.7 1.1 3.2.4 1.5.7 3.7 1 6.4l.2 1.3c.1.7.3 1.5.5 2.5.2.9.4 1.9.7 2.8.3 1 .6 1.8.9 2.4.3.6.6 1 .9 1.1.3.1.6-.2.9-1 .1-.2.3-.7.5-1.4.3-.7.6-1.5 1-2.5.4-.9.8-1.9 1.2-3 .4-1.1.8-2.1 1.2-3 .4-.9.7-1.8 1-2.5.3-.7.5-1.2.6-1.4.1-.3.3-.8.5-1.5s.5-1.5.9-2.4c.5-.7.9-1.6 1.4-2.5.5-.9.9-1.8 1.5-2.5.5-.7 1-1.3 1.6-1.7.6-.4 1.1-.5 1.7-.3.1 0 .1.1.2.2s.2.2.2.3c-1.7 2-3.1 4.2-4.2 6.3-1.1 2.2-2.1 4.4-2.9 6.6l-2.4 6.9c-.7 2.3-1.6 4.7-2.6 7.2-.4 1.1-.8 1.7-1.3 1.8-.4.2-.9 0-1.3-.5s-.9-1.2-1.3-2.1c-.4-.9-.8-2-1.2-3.2l-1.1-3.6c-.3-1.2-.6-2.4-.9-3.5-.2-1.1-.4-2-.6-2.7-.1-.7-.2-1.2-.3-1.3-.1-.2-.1-.5-.1-.8l-.1-.9c.1-.2.1-.6 0-1h-.4s-.2.3-.5.8l-1 2-1.2 2.4c-.4.8-.7 1.5-1 2.1-.1.3-.3.9-.6 1.9-.3 1-.6 2.1-1 3.4-.4 1.3-.8 2.6-1.3 3.9-.5 1.3-1 2.5-1.5 3.4-.5 1-1 1.6-1.5 2-.6.4-1 .3-1.4-.4zM98 31.7c-.1-.4-.1-.8.1-1.1.2-.3.5-.6.9-.8 1.7-.8 3.3-1.5 4.9-2.1 1.6-.6 3.2-1.2 4.7-1.7 1.6-.6 3.1-1.2 4.6-1.9 1.5-.7 3.1-1.6 4.7-2.8 3.5-2.1 6.3-4 8.2-5.8 1.9-1.8 3.1-3.4 3.8-4.8.6-1.4.7-2.7.2-3.8-.5-1.1-1.3-2-2.4-2.7-1.1-.7-2.5-1.1-4.2-1.4-1.6-.2-3.3-.2-5.1.1-1.8.3-3.5.8-5.2 1.6-1.7.8-3.1 1.9-4.3 3.3 0 .1-.1.1-.1.3-.1.1-.1.3-.1.4l-.1.4-.1.3c-.8 1.9-1.6 3.6-2.3 5-.7 1.4-1.4 2.7-2 4-.6 1.3-1.2 2.6-1.8 4.1-.6 1.4-1.1 3.2-1.6 5.3-.5.2-.8.1-1 0-.2-.2-.3-.5-.3-.9s0-.8.1-1.4.3-1 .4-1.5c.2-.5.3-.9.5-1.3s.3-.7.3-.9c.2-.6.6-1.4 1-2.4.5-1 .9-2 1.5-3.1.5-1.1 1-2.1 1.5-3.1s.8-1.8 1.1-2.4c-.2-.8-.3-1.5-.1-2.1.1-.6.4-1.2.8-1.7s.8-1 1.4-1.4l1.6-1.2c1.5-1.1 3.2-2 5-2.6 1.8-.6 3.6-1 5.5-1 1.9-.1 3.7.2 5.5.7 1.8.5 3.6 1.4 5.2 2.6 1.3 1.1 2.1 2.3 2.3 3.5.2 1.3 0 2.6-.5 3.9-.6 1.3-1.5 2.7-2.8 4.1s-2.7 2.7-4.4 4.1c-1.7 1.3-3.5 2.6-5.5 3.8-2 1.2-3.9 2.4-5.9 3.4-2 1-3.9 2-5.7 2.8-1.9.8-3.5 1.4-4.9 1.9-1.4.5-2.6.7-3.5.8-1.2.1-1.8-.1-1.9-.5zM130 38.1c-.1-.4-.1-.8.2-1.3.3-.5.6-1 1-1.5l1.2-1.5s.7-.9.9-1.2c.2-.5.4-1 .5-1.5.1-.5.2-1 .2-1.5s0-1 .1-1.5c0-.5.1-1 .1-1.6.1-.8.3-1 .5-.8.3.2.5.7.7 1.4.2.7.4 1.5.4 2.5.1.9 0 1.8-.3 2.5-.1.1-.2.3-.3.7-.2.4-.4.9-.6 1.4-.3.5-.6 1.1-.9 1.7-.3.6-.7 1.1-1.1 1.5s-.7.8-1.1 1c-.4.2-.7.3-1.1.1-.1 0-.1-.1-.2-.2s-.2-.1-.2-.2z"/></g><g fill="#fff"><path d="M33.3 58.4c-.2-.4-.2-.8-.1-1.3s.3-.9.6-1.4c.3-.5.6-1 1-1.6s.7-1.1 1.1-1.7c.3-.6.6-1.2.8-1.8.2-.6.3-1.2.3-1.8-.1-.1-.2-.3-.4-.6s-.4-.6-.7-1c-.3-.4-.5-.8-.8-1.3s-.6-.9-.9-1.3-.5-.8-.8-1.2c-.2-.4-.4-.7-.5-1s-.1-.4-.1-.5c0-.1.2-.1.4 0 .2.2.4.5.7.9s.6.8.9 1.3l.9 1.5c.3.5.6 1 .9 1.4s.5.7.7 1c.2.2.4.3.5.3.1-.3.3-.7.6-1.3.3-.6.6-1.2.9-2 .3-.7.6-1.4 1-2.1.3-.7.7-1.3.9-1.8.3-.5.6-.8.8-1s.4-.1.5.3c.1.2 0 .6-.2 1.1-.2.5-.4 1.1-.8 1.9-.3.7-.7 1.5-1.2 2.4-.4.9-.9 1.8-1.4 2.8-.5.9-1 1.9-1.5 2.9s-.9 1.9-1.4 2.7c-.4.9-.8 1.7-1.1 2.4-.3.7-.5 1.3-.7 1.8 0 .1-.1.3-.2.4l-.3.3s-.2.1-.3 0c.1-.3 0-.5-.1-.7zM42 55.5c-.6-.2-.9-.6-1.1-1.1-.1-.5-.1-1 0-1.6.2-.6.4-1.2.8-1.8.4-.6.8-1.2 1.2-1.7.5-.5.9-.9 1.4-1.3s.9-.5 1.2-.6c.9-.1 1.5-.1 2 .2.5.2.8.6 1 1 .2.4.2.9.1 1.5s-.3 1.1-.5 1.7c-.3.6-.6 1.1-1.1 1.7-.4.5-.9 1-1.5 1.4-.5.4-1.1.6-1.7.7-.6.2-1.2.1-1.8-.1zm-.2-1.2c.1.4.3.7.7.7.4 0 .8 0 1.2-.3s1-.6 1.5-1 1-.9 1.4-1.4c.4-.5.8-1 1.1-1.5.3-.5.4-1 .4-1.3s-.2-.7-.6-.9c-.4-.2-1-.2-1.8-.1-.2.2-.4.4-.7.6l-.9.8-1 1c-.3.3-.6.7-.8 1.1-.2.4-.4.7-.5 1.1-.1.5-.1.9 0 1.2zM58.1 55.5c-.4-.2-.7-.4-.9-.6s-.4-.5-.5-.8-.2-.6-.3-1-.1-.7-.2-1.1c-.1-.1-.3 0-.7.2-.3.2-.7.5-1.1.9l-1.3 1.1s-.9.7-1.4.8c-.4.2-.8.2-1.2.1-.4-.1-.6-.5-.9-1.1-.1-.2 0-.5.1-.9s.3-.8.5-1.3.5-1 .8-1.5.6-1 .9-1.4.6-.8.8-1.1c.3-.3.4-.5.6-.6.3.2.5.4.4.7 0 .3-.2.7-.4 1.1-.2.4-.5.8-.8 1.3-.3.5-.7.9-.9 1.3-.3.4-.5.9-.7 1.3-.2.4-.2.8-.1 1.1.3.1.7.1 1.1-.2.4-.3.9-.6 1.4-1.1l1.6-1.6 1.5-1.7c.5-.5.9-1 1.2-1.4.4-.4.6-.7.8-.8.3.1.4.4.4.7 0 .3-.1.7-.2 1.1-.2.4-.4.8-.6 1.3l-.6 1.4s-.3.9-.3 1.3.1.8.3 1.1l.7.8h2.1c.1 0 .1 0 .1.1l-.2.3-.3.3c-.1.1-.2.1-.2.1-.4.1-.6.1-.9 0l-.6-.2zM63 55.5v-.4c0-.2.1-.4.2-.8s.2-.8.4-1.2.2-.8.4-1.2c.1-.4.2-.6.2-.8.1-.2.1-.4.2-.7.1-.3.1-.5 0-.7-.2 0-.5 0-.8.1l-.9.2h-.8c-.3 0-.4-.2-.5-.5.2-.3.4-.6.7-.7.3-.1.7-.2 1.1-.2.4 0 .8-.1 1.1-.2.4-.1.6-.3.8-.6.1-.4.3-.8.4-1.3.2-.5.4-1.1.5-1.6l.6-1.7.7-1.5c.2-.1.3-.1.4 0 .1.1.2.2.2.4l.1.5v.3c-.1.4-.2.7-.4 1.1l-.6 1.2s-.3.8-.4 1.2-.1.8 0 1.2h4.4l.1.1c.1.1.1.2.1.2.1.2 0 .3-.2.4-.2.1-.5.1-.9.1h-1.3c-.5 0-.9 0-1.4.1l-1.2.3c-.3.1-.6.4-.7.6-.4.9-.7 1.8-1 2.8s-.6 1.9-.9 2.8l-.2.2c-.1.1-.2.2-.3.2-.1.1-.2.1-.3.1s.3.2.2 0zM70.2 55.3v-.2c.1-.1.1-.3.3-.6l.4-.8c.1-.3.3-.6.4-.8.1-.3.2-.4.3-.6 0 0 .1-.2.2-.3.1-.2.3-.4.4-.7l.6-.9.6-1 .6-.9c.2-.3.3-.5.4-.7.3-.5.6-1 1-1.6.4-.6.7-1.2 1.1-1.9s.8-1.2 1.1-1.8c.4-.6.7-1.1 1-1.5l.8-.8c.2-.1.4 0 .5.2v.7c-.1.2-.2.3-.4.6-.2.2-.3.5-.5.8l-.5.8c-.2.2-.3.4-.4.6-.1.2-.3.5-.6.9-.2.2-.5.7-.9 1.2-.3.5-.7 1.1-1.1 1.7-.4.6-.7 1.1-1 1.6-.3.5-.5.9-.7 1.3s-.2.6-.2.7c.3-.1.7-.3 1.1-.5.4-.3.8-.5 1.1-.8.4-.3.8-.6 1.2-.8.4-.3.7-.5 1.1-.6.3 0 .6.2.9.4.2.2.4.5.5.8v3.6000000000000005c0 .2.1.3.2.6l.4.7.4.6c.1.2.2.3.2.3-.3.1-.5.1-.8 0-.2-.1-.5-.2-.6-.4s-.3-.4-.5-.7-.2-.5-.2-.8c0-.1 0-.4-.1-.7 0-.3-.1-.7-.1-1.1 0-.4 0-.7-.1-1.1v-.7l-.5-.2c-.1 0-.2 0-.4.1s-.4.3-.7.5-.5.4-.8.7c-.3.2-.6.5-.8.7-.3.2-.5.4-.6.6l-.3.3-.6.6-.9.9-.9.9-.6.6c-.2 0-.4.1-.5.1s-.4-.4-.5-.6zM93 55.3c-.1-.2-.1-.5 0-.9s.2-.8.4-1.2l.6-1.2s.4-.7.5-.9c0-.1.1-.2.1-.2 0-.1 0-.1.1-.2 0-.1 0-.1.1-.2 0-.1.1-.2.1-.4.1-.2.2-.5.4-.8.2-.4.4-.8.6-1.3l.7-1.5c.3-.5.5-1 .7-1.5.2-.5.4-.9.6-1.3s.3-.7.4-.8v-.5h-.7l-.7.3-.6.4c-.2.2-.4.3-.5.4-.2 0-.3-.1-.3-.3v-.4c.1-.2.1-.3.2-.4l.3-.3c1.4-.9 3-1.5 4.6-1.8 1.6-.3 3.3-.3 5-.1 1 .5 1.7 1 2.1 1.6.4.6.5 1.2.4 1.7-.1.6-.4 1.2-.9 1.8-.5.6-1.1 1.1-1.9 1.7-.7.5-1.5 1-2.4 1.5-.9.5-1.8.8-2.6 1.2-.9.3-1.7.6-2.5.8s-1.4.3-2 .3c-.3.4-.5.8-.6 1-.2.3-.3.5-.4.7-.1.2-.2.4-.2.6l-.2.6c-.1.2-.1.5-.2.8-.1.3-.2.7-.4 1.1l-.2.2-.3-.2-.3-.3zm3.5-5.7c.6.1 1.2.1 1.8-.1.6-.1 1.3-.3 1.9-.6.6-.2 1.3-.5 1.8-.8.6-.3 1.1-.6 1.6-.9 1.2-.6 2-1.3 2.6-1.9s.9-1.2 1-1.7c.1-.5.1-1-.2-1.4-.2-.4-.6-.7-1.1-1s-1-.4-1.6-.5c-.6-.1-1.3 0-1.9.1-.6.2-1.2.5-1.8.9-.6.4-1.1 1-1.4 1.7-.1.3-.3.6-.5 1l-.6 1.2-.6 1.2s-.4.9-.5 1.2c-.2.3-.3.6-.4.8-.1.2-.1.3-.1.3v.5zM105.6 55.5v-.5c0-.3.1-.7.2-1.2l.3-1.5c.1-.6.2-1.1.4-1.6s.3-1 .4-1.4c.1-.4.3-.7.4-.8.1-.1.2-.1.3 0l.3.3.3.3c.1.1.2.1.3 0 .4-.5.8-1 1.3-1.5s1-.9 1.5-1.3l.5-.2c.2-.1.5-.2.8-.3.3-.1.6-.2 1-.2.3-.1.6-.1.9-.1.2 0 .4.1.5.2.1.1 0 .3-.1.6-.8 0-1.6.3-2.3.7-.7.5-1.4 1-2 1.7-.6.7-1.2 1.4-1.6 2.2-.5.8-.9 1.5-1.3 2.2-.4.7-.7 1.3-.9 1.7-.2.5-.4.7-.5.7 0 0-.1 0-.2-.1-.3.2-.4.1-.5.1zM116.7 55.5c-.6-.2-.9-.6-1.1-1.1s-.1-1 0-1.6c.2-.6.4-1.2.8-1.8.4-.6.8-1.2 1.2-1.7.5-.5.9-.9 1.4-1.3.5-.4.9-.5 1.2-.6.9-.1 1.5-.1 2 .2.5.2.8.6 1 1s.2.9.1 1.5-.3 1.1-.5 1.7c-.3.6-.6 1.1-1.1 1.7-.4.5-.9 1-1.5 1.4-.5.4-1.1.6-1.7.7-.6.2-1.2.1-1.8-.1zm-.2-1.2c.1.4.3.7.7.7.4 0 .8 0 1.2-.3.5-.2 1-.6 1.5-1s1-.9 1.4-1.4c.4-.5.8-1 1.1-1.5.3-.5.4-1 .4-1.3s-.2-.7-.6-.9-1-.2-1.8-.1c-.2.2-.4.4-.7.6l-.9.8-1 1c-.3.3-.6.7-.8 1.1-.2.4-.4.7-.5 1.1-.1.5-.1.9 0 1.2zM121.1 61.6c-.4-.2-.8-.4-1-.7-.3-.3-.5-.6-.6-1l-.3-1.1v-.9c0-.3.1-.5.2-.6.1-.1.2-.2.4-.1 0 1.2.1 2.1.4 2.7.3.6.7 1 1.2 1.2.5.2 1 .1 1.6-.1.6-.2 1.2-.6 1.8-1.1.6-.5 1.2-1.1 1.8-1.8.6-.7 1-1.4 1.4-2.1.4-.7.7-1.5.8-2.2.2-.7.2-1.4 0-2-1.2.9-2.2 1.5-2.9 1.7s-1.2.2-1.4 0c-.3-.2-.4-.6-.3-1.1.1-.5.3-1.2.6-1.8.3-.7.7-1.3 1.2-2s1-1.2 1.5-1.7 1-.7 1.5-.9c.5-.1.9 0 1.2.4.3.4.5 1 .6 1.7s.1 1.5-.1 2.4c-.1.9-.3 1.8-.6 2.8-.3 1-.7 1.9-1.1 2.8-.5.9-1 1.8-1.6 2.5s-1.2 1.4-1.9 2c-.7.5-1.4.9-2.1 1.1s-1.5.1-2.3-.1zm4.2-10.3v1.1c.4.1.9 0 1.4-.3.5-.3.9-.7 1.3-1.2s.7-1 1-1.6.4-1 .5-1.4c.1-.4 0-.6-.2-.6s-.6.2-1.1.7c-.2.2-.4.4-.7.6-.3.3-.6.5-.8.8l-.8.9s-.5.8-.6 1zM132 55.5v-.5c0-.3.1-.7.2-1.2l.3-1.5c.1-.6.2-1.1.4-1.6.1-.5.3-1 .4-1.4.1-.4.3-.7.4-.8.1-.1.2-.1.3 0l.3.3.3.3c.1.1.2.1.3 0 .4-.5.8-1 1.3-1.5s1-.9 1.5-1.3l.5-.2c.2-.1.5-.2.8-.3.3-.1.6-.2 1-.2.3-.1.6-.1.9-.1.2 0 .4.1.5.2.1.1 0 .3-.1.6-.8 0-1.6.3-2.3.7-.7.5-1.4 1-2 1.7-.6.7-1.2 1.4-1.6 2.2-.5.8-.9 1.5-1.3 2.2-.4.7-.7 1.3-.9 1.7-.2.5-.4.7-.5.7 0 0-.1 0-.2-.1-.4.2-.5.1-.5.1zM142.6 55.3c-.3-.3-.5-.7-.5-1.2s0-1.1.2-1.8.5-1.4.8-2.1c.4-.7.8-1.4 1.3-2.1.5-.7 1-1.3 1.6-1.8.6-.5 1.1-.9 1.7-1.2.6-.3 1.1-.3 1.6-.3s1 .4 1.5.9c.3.3.4.7.5 1 .1.4 0 .7 0 1.1l-.3 1.1s-.3.8-.4 1.1l-.4 1.2c-.1.4-.1.8-.1 1.2.1.5.3.8.7.9.4.1.9.1 1.4-.1s1.1-.4 1.8-.7c.6-.3 1.2-.7 1.7-1 .5-.3 1.1-.7 1.8-1.2.4-.1.6-.1.6.1 0 .1 0 .3-.2.6l-.9.9c-.4.3-.9.6-1.4.9-.5.3-1.1.6-1.6.8-.6.2-1.1.4-1.7.5-.5.1-1.1.1-1.6 0s-.9-.3-1.2-.7c-.2-.2-.3-.3-.3-.5s-.2-.3-.4-.4c-.2.2-.5.4-.7.8l-.9.9c-.3.3-.7.6-1.1.9-.4.3-.8.5-1.2.6-.4.1-.8.2-1.2.1-.4 0-.8-.2-1.1-.5zm.2-.7c.1.4.4.6.8.6s.9-.2 1.5-.6c.6-.4 1.1-.9 1.8-1.6.6-.7 1.1-1.4 1.6-2.2.5-.8.8-1.7 1.1-2.6.3-.9.3-1.8.2-2.7-.3-.3-.7-.3-1.2 0-.5.2-1 .6-1.6 1.2-.6.5-1.1 1.2-1.6 1.9s-1 1.5-1.4 2.3c-.4.8-.7 1.5-.9 2.2-.4.6-.4 1.1-.3 1.5zM168.4 54.7v-.7c0-.2.1-.4.2-.7l.3-.6c.1-.1.2-.4.3-.8l.6-1.1s.4-.8.6-1.1.3-.6.4-.7v-.5c-.1-.1-.4 0-.8.3s-.9.6-1.5 1.1-1.2.9-1.8 1.5l-1.8 1.6c-.6.5-1 .9-1.5 1.3s-.7.6-.8.8c-.3.1-.5 0-.6-.2-.1-.2-.1-.5-.1-.9s.1-.9.2-1.4c.1-.5.3-1 .4-1.4.1-.4.2-.8.3-1.1.1-.3.1-.5.1-.5-.3-.1-.6-.1-.9.1-.3.2-.6.4-.9.7-.3.3-.6.7-.9 1.1l-.9 1.3-.9 1.2c-.3.4-.6.7-.8 1-.3.2-.5.4-.7.4s-.4-.1-.6-.3v-.2c.1-.1.2-.4.3-.6.1-.3.3-.6.5-1l.6-1.2.6-1.2s.3-.7.5-1c.1-.3.3-.5.3-.6.1-.1.2-.3.3-.5s.2-.4.4-.6c.1-.2.3-.4.5-.7h.5c.1.3.1.6 0 .9l-.4.8c-.2.3-.3.5-.4.8-.1.3-.1.5 0 .8 1.2-1 2.1-1.8 2.7-2.3.6-.5 1.1-.8 1.4-.8.3-.1.4 0 .4.3s-.1.6-.2 1.1c-.1.5-.2 1-.3 1.6-.1.6-.1 1.2 0 1.7h.2c.1-.1.2-.2.4-.3s.4-.3.6-.5l.6-.5s.3-.3.4-.3c.2-.1.4-.3.7-.5.3-.2.6-.4.9-.7.3-.2.6-.4.8-.6.2-.2.4-.3.5-.3.1 0 .2-.1.4-.3s.4-.3.6-.4.4-.3.6-.4c.2-.1.4-.2.5-.3.2-.1.4-.2.6-.2.2 0 .3.1.4.2.1.1.2.3.2.5s0 .4-.1.7l-1 1.8-.9 1.8c-.3.6-.5 1.2-.7 1.8s-.3 1.3-.3 2h-.2c-.1 0-.1-.1-.2-.2s-.2-.2-.2-.3c-.3-.3-.4-.5-.4-.7z"/></g><g fill="#fff"><path d="M151.4 26c.8-2.6 1.6-4.7 2.2-6.3s1.2-2.6 1.7-3.2c.4-.6.8-.8.9-.6.2.2.1.8 0 1.7-.2.9-.6 2.1-1.2 3.6s-1.5 3.2-2.6 5.2c-.2.1-.3.1-.6 0-.2-.1-.3-.2-.4-.4zm5.3-14.4c0-.1-.1-.3-.1-.5 0-.3 0-.4.1-.5.5-.2.8-.2 1-.1.2.1.4.3.4.5.1.2.1.5 0 .7-.1.3-.2.5-.3.6-.2.1-.3.1-.6.1s-.4-.3-.5-.8zM170.4 26c-.1-.7 0-1.3.2-2 .2-.6.4-1.3.7-1.9l.9-1.9c.3-.6.6-1.2.9-1.9.2-.6.4-1.2.5-1.8.1-.6.1-1.2-.1-1.8-.5-.2-1.1-.1-1.7.1-.6.3-1.3.7-2.1 1.2-.7.5-1.5 1.1-2.2 1.9-.8.7-1.5 1.4-2.2 2.2l-2.1 2.1c-.7.7-1.3 1.2-1.8 1.6-.5.4-1 .7-1.3.8-.4.1-.6 0-.7-.4 0 0 .1-.3.3-.8.2-.5.6-1.1.9-1.8.4-.7.8-1.5 1.2-2.4.4-.9.9-1.7 1.3-2.4l1-1.9c.3-.5.5-.8.6-.8.4.3.6.6.6.9 0 .3 0 .7-.2 1-.1.3-.3.7-.4 1.1s-.2.7-.1 1.1c.3-.2.8-.5 1.3-.9.6-.4 1.2-.8 1.9-1.2l2.1-1.2s1.4-.7 2.1-.9c.6-.2 1.2-.4 1.7-.4s.9.1 1.1.4c.2.3.3.8.2 1.6-.1.7-.4 1.7-.9 3-.1.1-.2.5-.4 1s-.5 1.1-.7 1.7c-.3.6-.5 1.2-.7 1.7-.2.5-.4.9-.4 1 0 .1 0 .2-.1.4s-.1.4-.1.7c0 .2-.1.5-.2.7-.1.2-.2.4-.3.5s-.3.1-.4 0c-.3-.1-.4-.2-.4-.3zM179 26c-1-.3-1.7-.9-2-1.6-.3-.7-.4-1.5-.3-2.4.1-.9.5-1.9 1-2.9s1.2-2 1.9-2.9c.7-.9 1.5-1.7 2.3-2.5.8-.7 1.6-1.3 2.3-1.7.7-.4 1.4-.5 1.9-.4.5.1.8.5 1 1.2.1.3 0 .7-.1 1-.1.4-.3.7-.5 1.1-.2.3-.5.7-.8 1-.3.3-.6.5-.8.6-.3.1-.5.2-.7.1-.2 0-.3-.2-.4-.5.2-.4.5-.8.8-1.2l.9-1.2c-.1-.2-.3-.3-.7-.1-.3.1-.7.4-1.2.7-.5.4-1 .8-1.5 1.4-.5.5-1 1.1-1.5 1.8-.5.6-.9 1.3-1.3 2s-.7 1.4-.9 2c-.2.6-.2 1.2-.1 1.8.1.5.4 1 .9 1.3.7.1 1.4 0 2.3-.2.9-.2 1.7-.4 2.6-.7.9-.3 1.8-.6 2.7-1 .9-.3 1.7-.7 2.4-1 .7-.3 1.3-.5 1.9-.7.5-.2.8-.2 1-.1.4.2.4.5.1.9-.3.4-.9.8-1.7 1.2-.8.4-1.7.9-2.8 1.3-1.1.4-2.1.8-3.2 1.1-1.1.3-2.1.5-3.1.7s-1.9.1-2.4-.1zM193.7 26c-.3-.4-.4-.8-.2-1.3s.4-.8.7-1 .7-.3 1-.3c.4 0 .7.3.9.8.1.3.1.6 0 .9-.1.3-.4.6-.6.8-.3.2-.6.3-.9.4-.4.2-.7 0-.9-.3z"/></g></svg>